<svg xmlns="http://www.w3.org/2000/svg" xmlns:xlink="http://www.w3.org/1999/xlink" width="127" height="127" viewBox="0 0 127 127">
  <defs>
    <filter id="Elipse_123" x="0" y="0" width="127" height="127" filterUnits="userSpaceOnUse">
      <feOffset dy="3" input="SourceAlpha"/>
      <feGaussianBlur stdDeviation="3" result="blur"/>
      <feFlood flood-opacity="0.161"/>
      <feComposite operator="in" in2="blur"/>
      <feComposite in="SourceGraphic"/>
    </filter>
  </defs>
  <g id="dieta" transform="translate(-345 -1146)">
    <g transform="matrix(1, 0, 0, 1, 345, 1146)" filter="url(#Elipse_123)">
      <circle id="Elipse_123-2" data-name="Elipse 123" cx="54.5" cy="54.5" r="54.5" transform="translate(9 6)" fill="#fff"/>
    </g>
    <g id="piramide" transform="translate(376.905 1162.202)">
      <path id="Trazado_1332" data-name="Trazado 1332" d="M385.682,1217.1s-9.435,15.647-7.813,16.448,58.531,1.481,58.531,1.481,1.225-.238,0-4.188-3.509-11.561-6.489-13.025S385.682,1217.1,385.682,1217.1Z" transform="translate(-376.905 -1162.202)" fill="#d1595a"/>
      <path id="Trazado_1331" data-name="Trazado 1331" d="M59.455,73.569H2.736a2.733,2.733,0,0,1-2.41-4.02L3.761,63.12a.911.911,0,0,1,1.607.859L1.932,70.407a.911.911,0,0,0,.8,1.34H39.983V68c-4.156-.546-7.4-4.787-7.4-9.921a.911.911,0,0,1,.911-.911c3.222,0,6.022,2.213,7.4,5.44,1.379-3.227,4.178-5.44,7.4-5.44a.911.911,0,0,1,.911.911c0,5.134-3.244,9.375-7.4,9.921v3.742h17.65a.911.911,0,0,0,.8-1.34L52.214,55.351H29a.911.911,0,1,1,0-1.822H51.24L46.373,44.42H15.818l-4.867,9.109h14.3a.911.911,0,0,1,0,1.822,3.143,3.143,0,0,0-2.9,1.955,8.191,8.191,0,0,1,1.289-.133c3.044,0,5.171,2.295,5.171,5.58,0,2.888-2.259,7.173-5.379,7.173a10.564,10.564,0,0,1-2.22-.362,10.555,10.555,0,0,1-2.22.362c-3.121,0-5.379-4.284-5.379-7.173,0-3.285,2.126-5.58,5.171-5.58a9.485,9.485,0,0,1,1.644.2,4.942,4.942,0,0,1,1-2.02H9.977L6.991,60.939a.911.911,0,0,1-1.607-.859l23.3-43.607a2.733,2.733,0,0,1,4.82,0l4.722,8.837a.911.911,0,0,1-1.607.859L31.9,17.331a.911.911,0,0,0-1.607,0l-7.66,14.336h1.8a.911.911,0,1,1,0,1.822H21.659L16.792,42.6H35.714l-1.822-1.822H30.626a4.555,4.555,0,1,1,0-9.109h8.933l-1.231-2.3a.911.911,0,1,1,1.607-.859l21.93,41.043a2.733,2.733,0,0,1-2.41,4.02ZM21.214,67.709a.915.915,0,0,1,.245.033,10,10,0,0,0,1.975.36,3.226,3.226,0,0,0,2.4-1.75,7.06,7.06,0,0,0,1.161-3.6c0-1.734-.877-3.758-3.349-3.758a12.021,12.021,0,0,0-2.2.366.909.909,0,0,1-.45,0,12.033,12.033,0,0,0-2.2-.366c-2.472,0-3.349,2.025-3.349,3.758a7.058,7.058,0,0,0,1.161,3.6,3.226,3.226,0,0,0,2.4,1.75,10,10,0,0,0,1.976-.36.909.909,0,0,1,.244-.033Zm13.239-8.626c.354,3.632,2.615,6.534,5.482,7.07C39.58,62.521,37.319,59.62,34.453,59.083Zm12.882,0c-2.867.536-5.127,3.438-5.482,7.07C44.72,65.617,46.98,62.716,47.335,59.083ZM38.291,42.6H45.4l-4.867-9.109H34.267a4.531,4.531,0,0,1,.913,2.733v3.266Zm-7.665-9.109a2.733,2.733,0,1,0,0,5.465h2.733V36.222A2.736,2.736,0,0,0,30.626,33.489ZM27.6,51.341a.911.911,0,0,1-1.244-.333l-1.822-3.155a.911.911,0,0,1,1.578-.911L27.937,50.1A.911.911,0,0,1,27.6,51.341Zm4.858,0a.911.911,0,0,1-1.244-.333L29.4,47.852a.911.911,0,0,1,1.578-.911L32.8,50.1A.911.911,0,0,1,32.462,51.341Zm4.858,0a.911.911,0,0,1-1.244-.333l-1.822-3.155a.911.911,0,0,1,1.578-.911L37.653,50.1A.911.911,0,0,1,37.32,51.341ZM31.1,29.845a3.157,3.157,0,0,1-3.154-3.154c0-1.4,1.83-4.311,2.391-5.17a.911.911,0,0,1,1.525,0c.561.859,2.391,3.769,2.391,5.17A3.157,3.157,0,0,1,31.1,29.845Zm0-6.088a10.132,10.132,0,0,0-1.332,2.934,1.332,1.332,0,0,0,2.664,0A10.128,10.128,0,0,0,31.1,23.757Z" fill="#222" stroke="#222" stroke-width="1"/>
    </g>
  </g>
</svg>
