<svg xmlns="http://www.w3.org/2000/svg" xmlns:xlink="http://www.w3.org/1999/xlink" width="127" height="127" viewBox="0 0 127 127">
  <defs>
    <filter id="Elipse_123" x="0" y="0" width="127" height="127" filterUnits="userSpaceOnUse">
      <feOffset dy="3" input="SourceAlpha"/>
      <feGaussianBlur stdDeviation="3" result="blur"/>
      <feFlood flood-opacity="0.161"/>
      <feComposite operator="in" in2="blur"/>
      <feComposite in="SourceGraphic"/>
    </filter>
  </defs>
  <g id="tecnología" transform="translate(-345 -1146)">
    <g transform="matrix(1, 0, 0, 1, 345, 1146)" filter="url(#Elipse_123)">
      <circle id="Elipse_123-2" data-name="Elipse 123" cx="54.5" cy="54.5" r="54.5" transform="translate(9 6)" fill="#fff"/>
    </g>
    <g id="bascula-de-bano" transform="translate(381.317 1179.818)">
      <circle id="Elipse_124" data-name="Elipse 124" cx="3.5" cy="3.5" r="3.5" transform="translate(6.683 40.182)" fill="#d1595a"/>
      <circle id="Elipse_125" data-name="Elipse 125" cx="3.5" cy="3.5" r="3.5" transform="translate(39.683 40.182)" fill="#d1595a"/>
      <path id="Trazado_1322" data-name="Trazado 1322" d="M393.642,1193.036l4.277,6.564h20.6l3.833-6.564s-10.379-5.891-14.494-5.254S393.642,1193.036,393.642,1193.036Z" transform="translate(-381.317 -1179.818)" fill="#d1595a"/>
      <path id="Trazado_1309" data-name="Trazado 1309" d="M47.408,53.365H5.957A5.964,5.964,0,0,1,0,47.408V5.957A5.964,5.964,0,0,1,5.957,0h41.45a5.964,5.964,0,0,1,5.957,5.957v41.45A5.964,5.964,0,0,1,47.408,53.365ZM5.957,2.482A3.479,3.479,0,0,0,2.482,5.957v41.45a3.479,3.479,0,0,0,3.475,3.475h41.45a3.479,3.479,0,0,0,3.475-3.475V5.957a3.479,3.479,0,0,0-3.475-3.475Zm0,0" fill="#222" stroke="#222" stroke-width="1"/>
      <path id="Trazado_1310" data-name="Trazado 1310" d="M42.031,297.19a4.964,4.964,0,1,1,4.964-4.964A4.97,4.97,0,0,1,42.031,297.19Zm0-7.447a2.482,2.482,0,1,0,2.482,2.482A2.485,2.485,0,0,0,42.031,289.743Zm0,0" transform="translate(-32.102 -248.789)" fill="#222"/>
      <path id="Trazado_1311" data-name="Trazado 1311" d="M67.349,316.3a1.241,1.241,0,1,1-1.241-1.241A1.241,1.241,0,0,1,67.349,316.3Zm0,0" transform="translate(-56.18 -272.863)" fill="#222"/>
      <path id="Trazado_1312" data-name="Trazado 1312" d="M292.225,297.19a4.964,4.964,0,1,1,4.964-4.964A4.97,4.97,0,0,1,292.225,297.19Zm0-7.447a2.482,2.482,0,1,0,2.482,2.482A2.485,2.485,0,0,0,292.225,289.743Zm0,0" transform="translate(-248.789 -248.789)" fill="#222"/>
      <path id="Trazado_1313" data-name="Trazado 1313" d="M317.541,316.3a1.241,1.241,0,1,1-1.241-1.241A1.242,1.242,0,0,1,317.541,316.3Zm0,0" transform="translate(-272.863 -272.863)" fill="#222"/>
      <path id="Trazado_1314" data-name="Trazado 1314" d="M109.46,69.249h-21.1a1.24,1.24,0,0,1-1.064-.6l-3.723-6.205A1.243,1.243,0,0,1,83.4,61.8c0-1.822,3.1-3.378,4.946-4.143a28.1,28.1,0,0,1,21.133,0c1.847.765,4.946,2.321,4.946,4.143a1.243,1.243,0,0,1-.177.639l-3.723,6.205A1.242,1.242,0,0,1,109.46,69.249ZM89.065,66.767h19.692l2.989-4.982a12.624,12.624,0,0,0-3.779-2.055,25.668,25.668,0,0,0-18.112,0,12.631,12.631,0,0,0-3.779,2.055Zm0,0" transform="translate(-72.229 -48.152)" fill="#222"/>
      <path id="Trazado_1315" data-name="Trazado 1315" d="M154.47,101.351a1.239,1.239,0,0,1-.97-.466l-4.964-6.205a1.241,1.241,0,0,1,1.938-1.551l4.964,6.205a1.242,1.242,0,0,1-.968,2.017Zm0,0" transform="translate(-128.407 -80.253)" fill="#222"/>
      <path id="Trazado_1316" data-name="Trazado 1316" d="M64.863,259.461h2.482v2.482H64.863Zm0,0" transform="translate(-56.176 -224.712)" fill="#222"/>
      <path id="Trazado_1317" data-name="Trazado 1317" d="M64.863,148.262h2.482v13.651H64.863Zm0,0" transform="translate(-56.176 -128.405)" fill="#222"/>
      <path id="Trazado_1318" data-name="Trazado 1318" d="M315.059,259.461h2.482v2.482h-2.482Zm0,0" transform="translate(-272.863 -224.712)" fill="#222"/>
      <path id="Trazado_1319" data-name="Trazado 1319" d="M64.863,37.066h2.482v2.482H64.863Zm0,0" transform="translate(-56.176 -32.102)" fill="#222"/>
      <path id="Trazado_1320" data-name="Trazado 1320" d="M315.059,37.066h2.482v2.482h-2.482Zm0,0" transform="translate(-272.863 -32.102)" fill="#222"/>
      <path id="Trazado_1321" data-name="Trazado 1321" d="M315.059,148.262h2.482v13.651h-2.482Zm0,0" transform="translate(-272.863 -128.405)" fill="#222"/>
    </g>
  </g>
</svg>
